# xmcd
#
# Track frame offsets:
#	150
#	25492
#	39952
#	56032
#	71730
#	78964
#	104199
#	116510
#	148464
#	164236
#	208164
#
# Disc length: 2997 seconds
#
# Revision: 0
# Processed by: cddbd v1.5.2PL0 Copyright (c) Steve Scherf et al.
# Submitted via: EasyCDDAExtractor 11.9.9.666
#
DISCID=af0bb30b
DTITLE=Roger Dean Young and The Tin Cup - Pilgrim
DYEAR=1900
DGENRE=
TTITLE0=Pilgrim
TTITLE1=Pebbles
TTITLE2=Hollowpoint Heart
TTITLE3=Thrasher 3:7
TTITLE4=Stettler
TTITLE5=Helicopter
TTITLE6=Tom
TTITLE7=South Country Fair
TTITLE8=Damascus
TTITLE9=Alberta
TTITLE10=Ravenna
EXTD=
EXTT0=
EXTT1=
EXTT2=
EXTT3=
EXTT4=
EXTT5=
EXTT6=
EXTT7=
EXTT8=
EXTT9=
EXTT10=
PLAYORDER=
